<svg xmlns="http://www.w3.org/2000/svg" height="48" viewBox="0 -960 960 960" width="48"><path d="M719.199-71q-70.749 0-119.974-49.566Q550-170.131 550-241.54q0-70.408 49.113-119.434Q648.225-410 719.699-410q69.249 0 119.275 48.867Q889-312.267 889-241.858q0 71.408-50.026 121.133Q788.948-71 719.199-71ZM241.801-207q-70.749 0-120.275-49.066Q72-305.131 72-376.54q0-70.408 49.413-119.934Q170.827-546 242.301-546q69.249 0 118.974 49.367Q411-447.267 411-376.858q0 71.408-49.725 120.633Q311.55-207 241.801-207Zm210.04-365q-70.16 0-119.5-49.5Q283-671 283-740.5q0-70.5 49.341-121 49.34-50.5 119.5-50.5Q523-912 573.5-861.5t50.5 121q0 69.5-50.5 119T451.841-572Z"/></svg>